<?xml version="1.0" encoding="UTF-8" standalone="no" ?>
<!DOCTYPE svg PUBLIC "-//W3C//DTD SVG 1.1//EN" "http://www.w3.org/Graphics/SVG/1.1/DTD/svg11.dtd">
<svg xmlns="http://www.w3.org/2000/svg" xmlns:xlink="http://www.w3.org/1999/xlink" version="1.1" width="500" height="500" viewBox="0 0 500 500" xml:space="preserve">
<desc>Created with Fabric.js 4.6.0</desc>
<defs>
</defs>
<g transform="matrix(0.88 0 0 8.43 64.08 250)" id="ZIYuwVF5CZA8UdfazXJNQ"  >
<path style="stroke: rgb(39,190,82); stroke-width: 0; stroke-dasharray: none; stroke-linecap: butt; stroke-dashoffset: 0; stroke-linejoin: miter; stroke-miterlimit: 4; fill: rgb(108,59,244); fill-rule: nonzero; opacity: 1;" vector-effect="non-scaling-stroke"  transform=" translate(0, 0)" d="M -27.99552 -26.58654 C -27.99552 -27.3647 -21.95264 -27.99553 -14.49837 -27.99553 L 14.49837 -27.99553 L 14.49837 -27.99553 C 21.95264 -27.99553 27.99552 -27.36471 27.99552 -26.58654 L 27.99552 26.586530000000003 L 27.99552 26.586530000000003 C 27.99552 27.364690000000003 21.95264 27.995520000000003 14.49837 27.995520000000003 L -14.49837 27.995520000000003 L -14.49837 27.995520000000003 C -21.95264 27.995520000000003 -27.99552 27.364700000000003 -27.99552 26.586530000000003 z" stroke-linecap="round" />
</g>
<g transform="matrix(-7.19 0 0 -0.71 240.73 466.11)" id="UFFfkkme7oQMLRm-OGepv"  >
<path style="stroke: rgb(39,190,82); stroke-width: 0; stroke-dasharray: none; stroke-linecap: butt; stroke-dashoffset: 0; stroke-linejoin: miter; stroke-miterlimit: 4; fill: rgb(108,59,244); fill-rule: nonzero; opacity: 1;" vector-effect="non-scaling-stroke"  transform=" translate(0, 0)" d="M -27.99552 -11.27299 C -27.99552 -20.508589999999998 -27.25592 -27.99552 -26.34357 -27.99552 L 26.343580000000003 -27.99552 L 26.343580000000003 -27.99552 C 27.255920000000003 -27.99552 27.995530000000002 -20.508589999999998 27.995530000000002 -11.27299 L 27.995530000000002 11.27298 L 27.995530000000002 11.27298 C 27.995530000000002 20.508580000000002 27.255930000000003 27.99551 26.343580000000003 27.99551 L -26.34357 27.99551 L -26.34357 27.99551 C -27.25591 27.99551 -27.99552 20.50858 -27.99552 11.27298 z" stroke-linecap="round" />
</g>
<g transform="matrix(-7.19 0 0 -0.71 240.73 33.88)" id="w-aYK-UumFkTAA40Sph8C"  >
<path style="stroke: rgb(39,190,82); stroke-width: 0; stroke-dasharray: none; stroke-linecap: butt; stroke-dashoffset: 0; stroke-linejoin: miter; stroke-miterlimit: 4; fill: rgb(108,59,244); fill-rule: nonzero; opacity: 1;" vector-effect="non-scaling-stroke"  transform=" translate(0, 0)" d="M -27.99552 -11.27299 C -27.99552 -20.508589999999998 -27.25592 -27.99552 -26.34357 -27.99552 L 26.343580000000003 -27.99552 L 26.343580000000003 -27.99552 C 27.255920000000003 -27.99552 27.995530000000002 -20.508589999999998 27.995530000000002 -11.27299 L 27.995530000000002 11.27298 L 27.995530000000002 11.27298 C 27.995530000000002 20.508580000000002 27.255930000000003 27.99551 26.343580000000003 27.99551 L -26.34357 27.99551 L -26.34357 27.99551 C -27.25591 27.99551 -27.99552 20.50858 -27.99552 11.27298 z" stroke-linecap="round" />
</g>
<g transform="matrix(-0.86 0 0 -3.32 418.11 107.07)" id="QiBlIlqCplAWwVdokP7Yy"  >
<path style="stroke: rgb(39,190,82); stroke-width: 0; stroke-dasharray: none; stroke-linecap: butt; stroke-dashoffset: 0; stroke-linejoin: miter; stroke-miterlimit: 4; fill: rgb(108,59,244); fill-rule: nonzero; opacity: 1;" vector-effect="non-scaling-stroke"  transform=" translate(0, 0)" d="M -27.99552 -24.4225 C -27.99552 -26.39582 -21.783079999999998 -27.99552 -14.119649999999998 -27.99552 L 14.119650000000002 -27.99552 L 14.119650000000002 -27.99552 C 21.78308 -27.99552 27.995520000000003 -26.39582 27.995520000000003 -24.4225 L 27.995520000000003 24.4225 L 27.995520000000003 24.4225 C 27.995520000000003 26.39582 21.78308 27.99552 14.119650000000002 27.99552 L -14.119649999999998 27.99552 L -14.119649999999998 27.99552 C -21.783079999999998 27.99552 -27.99552 26.39582 -27.99552 24.4225 z" stroke-linecap="round" />
</g>
<g transform="matrix(-0.45 0 0 -2.18 131.87 250)" id="hIFeATGLW05-f6PyKuyiE"  >
<path style="stroke: rgb(39,190,82); stroke-width: 0; stroke-dasharray: none; stroke-linecap: butt; stroke-dashoffset: 0; stroke-linejoin: miter; stroke-miterlimit: 4; fill: rgb(108,59,244); fill-rule: nonzero; opacity: 1;" vector-effect="non-scaling-stroke"  transform=" translate(0, 0)" d="M -27.99552 -22.542 C -27.99552 -25.553900000000002 -16.15928 -27.995520000000003 -1.5585299999999975 -27.995520000000003 L 1.5585400000000025 -27.995520000000003 L 1.5585400000000025 -27.995520000000003 C 16.159290000000002 -27.995520000000003 27.995530000000002 -25.553900000000002 27.995530000000002 -22.542 L 27.995530000000002 22.542 L 27.995530000000002 22.542 C 27.995530000000002 25.553900000000002 16.159290000000002 27.995520000000003 1.5585400000000007 27.995520000000003 L -1.5585299999999993 27.995520000000003 L -1.5585299999999993 27.995520000000003 C -16.15928 27.995520000000003 -27.99552 25.553900000000002 -27.99552 22.542 z" stroke-linecap="round" />
</g>
<g transform="matrix(-5.76 0 0 -0.8 280.64 208.93)" id="w57rp0UEM3_sD78LKKcZz"  >
<path style="stroke: rgb(39,190,82); stroke-width: 0; stroke-dasharray: none; stroke-linecap: butt; stroke-dashoffset: 0; stroke-linejoin: miter; stroke-miterlimit: 4; fill: rgb(108,59,244); fill-rule: nonzero; opacity: 1;" vector-effect="non-scaling-stroke"  transform=" translate(0, 0)" d="M -27.99552 -13.17934 C -27.99552 -21.362090000000002 -27.0728 -27.99552 -25.93458 -27.99552 L 25.934569999999997 -27.99552 L 25.934569999999997 -27.99552 C 27.072799999999997 -27.99552 27.995509999999996 -21.36209 27.995509999999996 -13.17934 L 27.995509999999996 17.54075 L 27.995509999999996 17.54075 C 27.995509999999996 23.31476 27.344409999999996 27.99552 26.541239999999995 27.99552 L -26.541270000000004 27.99552 L -26.541270000000004 27.99552 C -27.344440000000006 27.99552 -27.995540000000005 23.31476 -27.995540000000005 17.54075 z" stroke-linecap="round" />
</g>
<g transform="matrix(-0.85 0 0 3.32 418.06 393)" id="iYYtcIKFP1a54he3s7aQI"  >
<path style="stroke: rgb(39,190,82); stroke-width: 0; stroke-dasharray: none; stroke-linecap: butt; stroke-dashoffset: 0; stroke-linejoin: miter; stroke-miterlimit: 4; fill: rgb(108,59,244); fill-rule: nonzero; opacity: 1;" vector-effect="non-scaling-stroke"  transform=" translate(0, 0)" d="M -27.99552 -24.41978 C -27.99552 -26.3946 -21.770429999999998 -27.99552 -14.091399999999998 -27.99552 L 14.091400000000002 -27.99552 L 14.091400000000002 -27.99552 C 21.77043 -27.99552 27.995520000000003 -26.39461 27.995520000000003 -24.41978 L 27.995520000000003 24.419790000000003 L 27.995520000000003 24.419790000000003 C 27.995520000000003 26.394610000000004 21.770430000000005 27.995530000000002 14.091400000000002 27.995530000000002 L -14.091399999999998 27.995530000000002 L -14.091399999999998 27.995530000000002 C -21.770429999999998 27.995530000000002 -27.99552 26.394620000000003 -27.99552 24.419790000000003 z" stroke-linecap="round" />
</g>
<g transform="matrix(-5.76 0 0 0.8 280.94 295.8)" id="CBTbkyHcqovnNiEHD4Ck1"  >
<path style="stroke: rgb(39,190,82); stroke-width: 0; stroke-dasharray: none; stroke-linecap: butt; stroke-dashoffset: 0; stroke-linejoin: miter; stroke-miterlimit: 4; fill: rgb(108,59,244); fill-rule: nonzero; opacity: 1;" vector-effect="non-scaling-stroke"  transform=" translate(0, 0)" d="M -27.99552 -13.10447 C -27.99552 -17.053819999999998 -27.77827 -20.84142 -27.39156 -23.63403 C -27.004849999999998 -26.42664 -26.480349999999998 -27.99552 -25.933459999999997 -27.99552 L 25.93345 -27.99552 L 25.93345 -27.99552 C 27.072300000000002 -27.99552 27.99551 -21.32857 27.99551 -13.10447 L 27.99551 17.487920000000003 L 27.99551 17.487920000000003 C 27.99551 20.274710000000002 27.842209999999998 22.947360000000003 27.56933 24.917910000000003 C 27.29645 26.88847 26.92635 27.995510000000003 26.54045 27.995510000000003 L -26.54047 27.995510000000003 L -26.54047 27.995510000000003 C -27.344079999999998 27.995510000000003 -27.99553 23.291100000000004 -27.99553 17.487910000000003 z" stroke-linecap="round" />
</g>
</svg>